# Blender v2.68 (sub 0) OBJ File: 'braco.blend'
# www.blender.org
o Cylinder_Cylinder.011
v 0.622072 0.017178 -3.209096
v -0.622072 0.017178 -3.209096
v 0.622072 0.079071 -3.219315
v -0.622072 0.079072 -3.219315
v 0.622072 0.141769 -3.217263
v -0.622072 0.141769 -3.217263
v 0.622072 0.202861 -3.203018
v -0.622072 0.202861 -3.203018
v 0.622072 0.260000 -3.177128
v -0.622071 0.260000 -3.177128
v 0.622072 0.310991 -3.140589
v -0.622071 0.310991 -3.140589
v 0.622072 0.353873 -3.094804
v -0.622071 0.353874 -3.094804
v 0.622072 0.386999 -3.041533
v -0.622071 0.387000 -3.041533
v 0.622072 0.409097 -2.982822
v -0.622071 0.409097 -2.982822
v 0.622072 0.419315 -2.920929
v -0.622071 0.419315 -2.920929
v 0.622072 0.417263 -2.858232
v -0.622071 0.417263 -2.858232
v 0.622072 0.403018 -2.797139
v -0.622071 0.403018 -2.797139
v 0.622072 0.377128 -2.740000
v -0.622071 0.377129 -2.740000
v 0.622072 0.340589 -2.689009
v -0.622071 0.340589 -2.689009
v 0.622072 0.294804 -2.646127
v -0.622071 0.294804 -2.646127
v 0.622072 0.241533 -2.613001
v -0.622072 0.241533 -2.613001
v 0.622072 0.182822 -2.590904
v -0.622072 0.182822 -2.590904
v 0.622072 0.120929 -2.580685
v -0.622072 0.120929 -2.580685
v 0.622072 0.058232 -2.582738
v -0.622072 0.058232 -2.582738
v 0.622072 -0.002861 -2.596982
v -0.622072 -0.002860 -2.596982
v 0.622071 -0.060000 -2.622872
v -0.622072 -0.060000 -2.622872
v 0.622071 -0.110991 -2.659411
v -0.622072 -0.110990 -2.659411
v 0.622071 -0.153873 -2.705197
v -0.622072 -0.153873 -2.705197
v 0.622071 -0.186999 -2.758468
v -0.622072 -0.186999 -2.758468
v 0.622071 -0.209096 -2.817178
v -0.622072 -0.209096 -2.817178
v 0.622071 -0.219315 -2.879071
v -0.622072 -0.219314 -2.879071
v 0.622071 -0.217262 -2.941769
v -0.622072 -0.217262 -2.941769
v 0.622071 -0.203017 -3.002861
v -0.622072 -0.203017 -3.002861
v 0.622071 -0.177128 -3.060000
v -0.622072 -0.177127 -3.060000
v 0.622071 -0.140588 -3.110991
v -0.622072 -0.140588 -3.110991
v 0.622071 -0.094803 -3.153873
v -0.622072 -0.094803 -3.153873
v 0.622072 -0.041532 -3.187000
v -0.622072 -0.041531 -3.187000
vn -0.000000 -0.162892 -0.986644
vn 0.000000 0.032716 -0.999465
vn 0.000000 0.227078 -0.973877
vn 0.000000 0.412709 -0.910863
vn 0.000000 0.582477 -0.812847
vn 0.000000 0.729863 -0.683593
vn 0.000000 0.849202 -0.528067
vn 0.000000 0.935906 -0.352250
vn 0.000000 0.986643 -0.162896
vn 0.000000 0.999465 0.032719
vn 0.000000 0.973877 0.227076
vn 0.000000 0.910864 0.412707
vn 0.000000 0.812846 0.582478
vn 0.000000 0.683592 0.729864
vn 0.000000 0.528067 0.849203
vn 0.000000 0.352252 0.935905
vn 0.000000 0.162896 0.986643
vn -0.000000 -0.032720 0.999465
vn -0.000000 -0.227077 0.973877
vn -0.000000 -0.412709 0.910863
vn -0.000000 -0.582477 0.812847
vn -0.000000 -0.729865 0.683591
vn -0.000000 -0.849203 0.528067
vn -0.000000 -0.935906 0.352249
vn -0.000000 -0.986644 0.162894
vn -0.000000 -0.999465 -0.032720
vn -0.000000 -0.973877 -0.227078
vn -0.000000 -0.910864 -0.412708
vn -0.000000 -0.812846 -0.582479
vn -0.000000 -0.683592 -0.729865
vn -1.000000 -0.000000 -0.000000
vn -0.000000 -0.352251 -0.935906
vn -0.000000 -0.528066 -0.849203
vn 1.000000 0.000000 0.000000
vn 0.000000 -0.162896 -0.986643
vn 0.000000 0.032720 -0.999465
vn 0.000000 0.412706 -0.910865
vn 0.000000 0.582479 -0.812846
vn 0.000000 0.849203 -0.528067
vn 0.000000 0.910863 0.412708
vn 0.000000 0.812848 0.582476
vn -0.000000 -0.032724 0.999464
vn -0.000000 -0.227074 0.973878
vn -1.000000 -0.000000 -0.000002
vn -1.000000 -0.000001 0.000005
vn -1.000000 0.000000 0.000001
vn -1.000000 0.000003 -0.000004
vn -1.000000 0.000002 0.000002
vn -1.000000 0.000001 -0.000001
vn -1.000000 0.000001 0.000000
vn 1.000000 -0.000000 -0.000002
vn 1.000000 -0.000003 -0.000004
vn 1.000000 0.000000 0.000001
vn 1.000000 0.000001 -0.000005
vn 1.000000 -0.000001 0.000000
s off
f 1//1 2//1 3//1
f 3//2 4//2 5//2
f 5//3 6//3 7//3
f 7//4 8//4 9//4
f 9//5 10//5 11//5
f 11//6 12//6 13//6
f 13//7 14//7 15//7
f 15//8 16//8 17//8
f 17//9 18//9 19//9
f 19//10 20//10 21//10
f 21//11 22//11 23//11
f 23//12 24//12 25//12
f 25//13 26//13 27//13
f 27//14 28//14 29//14
f 29//15 30//15 31//15
f 31//16 32//16 33//16
f 33//17 34//17 35//17
f 35//18 36//18 37//18
f 37//19 38//19 39//19
f 39//20 40//20 41//20
f 41//21 42//21 43//21
f 43//22 44//22 45//22
f 45//23 46//23 47//23
f 47//24 48//24 49//24
f 49//25 50//25 51//25
f 51//26 52//26 53//26
f 53//27 54//27 55//27
f 55//28 56//28 57//28
f 57//29 58//29 59//29
f 59//30 60//30 61//30
f 4//31 2//31 6//31
f 63//32 64//32 1//32
f 61//33 62//33 63//33
f 1//34 3//34 63//34
f 2//35 4//35 3//35
f 4//36 6//36 5//36
f 6//3 8//3 7//3
f 8//37 10//37 9//37
f 10//38 12//38 11//38
f 12//6 14//6 13//6
f 14//39 16//39 15//39
f 16//8 18//8 17//8
f 18//9 20//9 19//9
f 20//10 22//10 21//10
f 22//11 24//11 23//11
f 24//40 26//40 25//40
f 26//41 28//41 27//41
f 28//14 30//14 29//14
f 30//15 32//15 31//15
f 32//16 34//16 33//16
f 34//17 36//17 35//17
f 36//42 38//42 37//42
f 38//43 40//43 39//43
f 40//20 42//20 41//20
f 42//21 44//21 43//21
f 44//22 46//22 45//22
f 46//23 48//23 47//23
f 48//24 50//24 49//24
f 50//25 52//25 51//25
f 52//26 54//26 53//26
f 54//27 56//27 55//27
f 56//28 58//28 57//28
f 58//29 60//29 59//29
f 60//30 62//30 61//30
f 2//31 64//31 6//31
f 64//44 62//44 6//44
f 62//31 60//31 6//31
f 60//31 58//31 6//31
f 58//31 56//31 6//31
f 56//31 54//31 6//31
f 54//31 52//31 6//31
f 52//31 50//31 6//31
f 50//31 48//31 6//31
f 48//31 46//31 6//31
f 46//31 44//31 6//31
f 42//45 40//45 38//45
f 34//31 38//31 36//31
f 42//46 38//46 34//46
f 8//47 12//47 10//47
f 26//31 30//31 28//31
f 26//48 32//48 30//48
f 12//31 16//31 14//31
f 8//49 16//49 12//49
f 22//31 26//31 24//31
f 22//50 32//50 26//50
f 18//31 22//31 20//31
f 18//31 32//31 22//31
f 18//31 34//31 32//31
f 42//31 34//31 18//31
f 44//31 42//31 18//31
f 6//31 44//31 18//31
f 8//46 6//46 16//46
f 6//31 18//31 16//31
f 64//32 2//32 1//32
f 62//33 64//33 63//33
f 3//34 5//34 63//34
f 5//34 7//34 63//34
f 7//51 9//51 63//51
f 9//34 11//34 63//34
f 11//34 13//34 63//34
f 13//34 15//34 63//34
f 15//34 17//34 63//34
f 17//34 19//34 63//34
f 19//34 21//34 63//34
f 21//34 23//34 63//34
f 23//34 25//34 63//34
f 35//34 31//34 33//34
f 63//52 59//52 61//52
f 63//34 25//34 59//34
f 27//52 29//52 31//52
f 27//53 31//53 35//53
f 45//34 41//34 43//34
f 51//34 47//34 49//34
f 51//34 45//34 47//34
f 51//34 41//34 45//34
f 25//34 27//34 59//34
f 27//34 35//34 59//34
f 37//54 39//54 41//54
f 37//55 41//55 51//55
f 35//34 37//34 51//34
f 35//34 51//34 53//34
f 57//34 59//34 55//34
f 59//34 35//34 55//34
f 35//34 53//34 55//34
o Cylinder.000_Cylinder.010
v -0.391488 0.494806 -0.000000
v -0.478214 0.494806 0.000000
v -0.391488 0.487179 0.077431
v -0.478214 0.487179 0.077432
v -0.391487 0.464594 0.151887
v -0.478214 0.464594 0.151887
v -0.391487 0.427916 0.220506
v -0.478213 0.427916 0.220506
v -0.391487 0.378556 0.280651
v -0.478213 0.378556 0.280651
v -0.391487 0.318412 0.330010
v -0.478213 0.318412 0.330011
v -0.391487 0.249793 0.366688
v -0.478213 0.249793 0.366688
v -0.391487 0.175337 0.389274
v -0.478213 0.175337 0.389274
v -0.391487 0.097906 0.396900
v -0.478213 0.097906 0.396900
v -0.391487 0.020474 0.389274
v -0.478213 0.020474 0.389274
v -0.391487 -0.053981 0.366688
v -0.478213 -0.053981 0.366688
v -0.391487 -0.122600 0.330010
v -0.478213 -0.122600 0.330010
v -0.391487 -0.182745 0.280650
v -0.478213 -0.182745 0.280651
v -0.391488 -0.232105 0.220506
v -0.478214 -0.232105 0.220506
v -0.391488 -0.268782 0.151887
v -0.478214 -0.268782 0.151887
v -0.391488 -0.291368 0.077431
v -0.478214 -0.291368 0.077431
v -0.391488 -0.298994 -0.000000
v -0.478214 -0.298994 -0.000000
v -0.391496 0.494806 -2.908605
v -0.478222 0.494806 -2.908604
v -0.391497 0.487179 -2.986036
v -0.478223 0.487179 -2.986036
v -0.391497 0.464594 -3.060492
v -0.478223 0.464594 -3.060492
v -0.391497 0.427916 -3.129110
v -0.478223 0.427916 -3.129110
v -0.391497 0.378556 -3.189255
v -0.478223 0.378556 -3.189255
v -0.391497 0.318412 -3.238615
v -0.478224 0.318412 -3.238615
v -0.391498 0.249793 -3.275293
v -0.478224 0.249793 -3.275292
v -0.391498 0.175337 -3.297879
v -0.478224 0.175337 -3.297878
v -0.391498 0.097906 -3.305505
v -0.478224 0.097906 -3.305505
v -0.391498 0.020474 -3.297879
v -0.478224 0.020474 -3.297878
v -0.391498 -0.053981 -3.275293
v -0.478224 -0.053981 -3.275292
v -0.391498 -0.122600 -3.238615
v -0.478224 -0.122600 -3.238615
v -0.391498 -0.182745 -3.189255
v -0.478224 -0.182745 -3.189255
v -0.391497 -0.232105 -3.129110
v -0.478224 -0.232105 -3.129110
v -0.391497 -0.268782 -3.060492
v -0.478223 -0.268782 -3.060491
v -0.391497 -0.291368 -2.986036
v -0.478223 -0.291368 -2.986035
v -0.391497 -0.298994 -2.908604
v -0.478223 -0.298994 -2.908604
v -0.478219 -0.298994 -1.774604
v -0.391493 -0.298994 -1.774604
v -0.478219 0.494806 -1.774604
v -0.391493 0.494806 -1.774605
v 0.457339 0.494806 -0.000002
v 0.370613 0.494806 -0.000001
v 0.457339 0.487180 0.077430
v 0.370613 0.487180 0.077430
v 0.457340 0.464594 0.151885
v 0.370614 0.464594 0.151886
v 0.457340 0.427916 0.220504
v 0.370614 0.427916 0.220504
v 0.457340 0.378557 0.280649
v 0.370614 0.378557 0.280649
v 0.457340 0.318412 0.330009
v 0.370614 0.318412 0.330009
v 0.457340 0.249793 0.366686
v 0.370614 0.249793 0.366686
v 0.457340 0.175337 0.389272
v 0.370614 0.175337 0.389272
v 0.457340 0.097906 0.396898
v 0.370614 0.097906 0.396899
v 0.457340 0.020475 0.389272
v 0.370614 0.020475 0.389272
v 0.457340 -0.053981 0.366686
v 0.370614 -0.053981 0.366686
v 0.457340 -0.122600 0.330008
v 0.370614 -0.122600 0.330009
v 0.457340 -0.182745 0.280649
v 0.370614 -0.182745 0.280649
v 0.457339 -0.232104 0.220504
v 0.370613 -0.232104 0.220504
v 0.457339 -0.268782 0.151885
v 0.370613 -0.268782 0.151885
v 0.457339 -0.291368 0.077429
v 0.370613 -0.291368 0.077430
v 0.457339 -0.298994 -0.000002
v 0.370613 -0.298994 -0.000002
v 0.457331 0.494806 -2.908606
v 0.370605 0.494806 -2.908606
v 0.457330 0.487180 -2.986037
v 0.370604 0.487180 -2.986037
v 0.457330 0.464594 -3.060493
v 0.370604 0.464594 -3.060493
v 0.457330 0.427916 -3.129112
v 0.370604 0.427916 -3.129111
v 0.457330 0.378557 -3.189257
v 0.370604 0.378557 -3.189256
v 0.457329 0.318412 -3.238616
v 0.370603 0.318412 -3.238616
v 0.457329 0.249793 -3.275294
v 0.370603 0.249793 -3.275293
v 0.457329 0.175337 -3.297880
v 0.370603 0.175337 -3.297879
v 0.457329 0.097906 -3.305506
v 0.370603 0.097906 -3.305506
v 0.457329 0.020475 -3.297880
v 0.370603 0.020475 -3.297879
v 0.457329 -0.053981 -3.275294
v 0.370603 -0.053981 -3.275293
v 0.457329 -0.122600 -3.238616
v 0.370603 -0.122600 -3.238616
v 0.457329 -0.182745 -3.189257
v 0.370603 -0.182745 -3.189256
v 0.457329 -0.232104 -3.129112
v 0.370603 -0.232104 -3.129111
v 0.457330 -0.268782 -3.060493
v 0.370604 -0.268782 -3.060493
v 0.457330 -0.291368 -2.986037
v 0.370604 -0.291368 -2.986037
v 0.457330 -0.298994 -2.908606
v 0.370604 -0.298994 -2.908605
v 0.370608 -0.298994 -1.774605
v 0.457334 -0.298994 -1.774606
v 0.370608 0.494806 -1.774606
v 0.457334 0.494806 -1.774606
vn 0.000001 0.995185 0.098017
vn 0.000001 0.956940 0.290285
vn 0.000002 0.881921 0.471397
vn 0.000003 0.773011 0.634393
vn 0.000003 0.634393 0.773011
vn 0.000003 0.471397 0.881921
vn 0.000003 0.290284 0.956941
vn 0.000003 0.098017 0.995185
vn 0.000003 -0.098018 0.995185
vn 0.000003 -0.290284 0.956941
vn 0.000002 -0.471397 0.881921
vn 0.000002 -0.634394 0.773010
vn 0.000002 -0.773011 0.634393
vn 0.000001 -0.881921 0.471396
vn 0.000001 -0.956941 0.290283
vn 0.000000 -0.995185 0.098016
vn 0.000000 1.000000 -0.000000
vn -0.000000 -1.000000 0.000000
vn 0.000000 0.995185 -0.098017
vn -0.000000 0.956940 -0.290284
vn -0.000001 0.881921 -0.471398
vn -0.000001 0.773011 -0.634393
vn -0.000002 0.634395 -0.773009
vn -0.000002 0.471397 -0.881921
vn -0.000002 0.290284 -0.956940
vn -0.000003 0.098017 -0.995185
vn -0.000003 -0.098017 -0.995185
vn -0.000003 -0.290284 -0.956940
vn -0.000003 -0.471398 -0.881921
vn -0.000002 -0.634395 -0.773009
vn -0.000002 -0.773011 -0.634393
vn -0.000002 -0.881921 -0.471397
vn -0.000001 -0.956941 -0.290283
vn -0.000001 -0.995185 -0.098017
vn -1.000000 0.000003 0.000004
vn 1.000000 0.000004 -0.000003
vn 0.000002 0.881921 0.471396
vn 0.000003 0.290285 0.956940
vn 0.000004 -0.098018 0.995185
vn 0.000003 -0.290285 0.956940
vn 0.000003 -0.471397 0.881921
vn 0.000001 -0.881922 0.471396
vn 0.000001 -0.956941 0.290284
vn 0.000001 1.000000 -0.000000
vn -0.000001 -1.000000 0.000000
vn -0.000001 0.956940 -0.290285
vn -0.000002 0.881921 -0.471398
vn -0.000003 0.773010 -0.634393
vn -0.000004 0.634393 -0.773011
vn -0.000005 0.471398 -0.881921
vn -0.000005 0.290284 -0.956940
vn -0.000005 0.098017 -0.995185
vn -0.000006 -0.098017 -0.995185
vn -0.000005 -0.290284 -0.956940
vn -0.000005 -0.471398 -0.881921
vn -0.000004 -0.634393 -0.773011
vn -0.000004 -0.773011 -0.634393
vn -0.000003 -0.881922 -0.471396
vn -0.000002 -0.956941 -0.290284
vn -0.000001 -0.995185 -0.098016
vn 1.000000 0.000003 -0.000003
vn 0.000002 0.773011 0.634393
vn 0.000003 0.290284 0.956940
vn -0.000002 0.471398 -0.881921
vn -1.000000 0.000001 0.000003
vn -1.000000 -0.000001 0.000003
vn -1.000000 0.000014 0.000003
vn -1.000000 0.000005 0.000003
vn -1.000000 0.000002 0.000003
vn -1.000000 0.000000 0.000003
vn -1.000000 0.000001 0.000004
vn 1.000000 0.000001 -0.000003
vn 1.000000 -0.000044 -0.000003
vn 1.000000 -0.000000 -0.000003
vn 1.000000 -0.000001 -0.000003
vn 1.000000 0.000001 -0.000004
vn 1.000000 -0.000001 -0.000004
vn 1.000000 0.000000 -0.000005
vn 0.000004 0.098016 0.995185
vn 0.000002 -0.773011 0.634392
vn 0.000001 -0.881921 0.471397
vn 0.000000 -0.956941 0.290283
vn -0.000003 0.773011 -0.634393
vn -0.000003 -0.881921 -0.471397
vn -1.000000 0.000013 0.000003
vn -1.000000 0.000000 0.000004
vn -1.000000 0.000000 0.000002
vn -1.000000 -0.000001 0.000000
vn 1.000000 -0.000041 -0.000003
vn 1.000000 -0.000000 -0.000004
vn 1.000000 -0.000002 -0.000003
s off
f 65//56 66//56 67//56
f 67//57 68//57 69//57
f 69//58 70//58 71//58
f 71//59 72//59 73//59
f 73//60 74//60 75//60
f 75//61 76//61 77//61
f 77//62 78//62 79//62
f 79//63 80//63 81//63
f 81//64 82//64 83//64
f 83//65 84//65 85//65
f 85//66 86//66 87//66
f 87//67 88//67 89//67
f 89//68 90//68 91//68
f 91//69 92//69 93//69
f 93//70 94//70 95//70
f 95//71 96//71 97//71
f 66//72 65//72 135//72
f 97//73 98//73 134//73
f 99//74 101//74 100//74
f 101//75 103//75 104//75
f 103//76 105//76 104//76
f 105//77 107//77 106//77
f 107//78 109//78 108//78
f 109//79 111//79 110//79
f 111//80 113//80 112//80
f 113//81 115//81 114//81
f 115//82 117//82 116//82
f 117//83 119//83 118//83
f 119//84 121//84 120//84
f 121//85 123//85 122//85
f 123//86 125//86 124//86
f 125//87 127//87 126//87
f 127//88 129//88 128//88
f 129//89 131//89 130//89
f 100//72 135//72 99//72
f 131//73 134//73 132//73
f 70//90 68//90 72//90
f 136//91 65//91 67//91
f 137//56 138//56 139//56
f 139//57 140//57 141//57
f 141//92 142//92 144//92
f 143//59 144//59 145//59
f 145//60 146//60 147//60
f 147//61 148//61 150//61
f 149//93 150//93 151//93
f 151//63 152//63 154//63
f 153//94 154//94 155//94
f 155//95 156//95 157//95
f 157//96 158//96 159//96
f 159//67 160//67 161//67
f 161//68 162//68 163//68
f 163//97 164//97 165//97
f 165//98 166//98 167//98
f 167//71 168//71 169//71
f 138//99 137//99 207//99
f 169//100 170//100 206//100
f 171//74 173//74 172//74
f 173//101 175//101 174//101
f 175//102 177//102 176//102
f 177//103 179//103 178//103
f 179//104 181//104 180//104
f 181//105 183//105 182//105
f 183//106 185//106 184//106
f 185//107 187//107 186//107
f 187//108 189//108 188//108
f 189//109 191//109 192//109
f 191//110 193//110 194//110
f 193//111 195//111 196//111
f 195//112 197//112 198//112
f 197//113 199//113 200//113
f 199//114 201//114 202//114
f 201//115 203//115 204//115
f 172//99 207//99 171//99
f 203//100 206//100 204//100
f 142//90 140//90 144//90
f 208//116 137//116 139//116
f 66//56 68//56 67//56
f 68//57 70//57 69//57
f 70//58 72//58 71//58
f 72//117 74//117 73//117
f 74//60 76//60 75//60
f 76//61 78//61 77//61
f 78//118 80//118 79//118
f 80//63 82//63 81//63
f 82//64 84//64 83//64
f 84//95 86//95 85//95
f 86//96 88//96 87//96
f 88//67 90//67 89//67
f 90//68 92//68 91//68
f 92//69 94//69 93//69
f 94//70 96//70 95//70
f 96//71 98//71 97//71
f 65//72 136//72 135//72
f 98//73 133//73 134//73
f 101//74 102//74 100//74
f 102//75 101//75 104//75
f 105//76 106//76 104//76
f 107//77 108//77 106//77
f 109//78 110//78 108//78
f 111//119 112//119 110//119
f 113//80 114//80 112//80
f 115//81 116//81 114//81
f 117//82 118//82 116//82
f 119//83 120//83 118//83
f 121//84 122//84 120//84
f 123//85 124//85 122//85
f 125//86 126//86 124//86
f 127//87 128//87 126//87
f 129//88 130//88 128//88
f 131//89 132//89 130//89
f 135//72 136//72 99//72
f 134//73 133//73 132//73
f 68//120 66//120 72//120
f 66//121 135//121 72//121
f 135//122 100//122 72//122
f 100//123 102//123 72//123
f 102//124 104//124 72//124
f 104//120 106//120 72//120
f 106//120 108//120 72//120
f 108//120 110//120 72//120
f 110//120 112//120 72//120
f 112//120 114//120 72//120
f 114//125 116//125 72//125
f 116//120 118//120 72//120
f 118//125 120//125 72//125
f 120//120 122//120 72//120
f 122//125 124//125 72//125
f 124//120 126//120 72//120
f 126//125 128//125 72//125
f 128//125 130//125 72//125
f 130//121 132//121 72//121
f 132//121 133//121 72//121
f 133//120 98//120 72//120
f 98//125 96//125 72//125
f 96//120 94//120 72//120
f 94//120 92//120 72//120
f 92//120 90//120 72//120
f 90//126 88//126 72//126
f 88//120 86//120 72//120
f 86//120 84//120 72//120
f 84//125 82//125 72//125
f 82//126 80//126 72//126
f 80//120 78//120 72//120
f 78//125 76//125 72//125
f 76//126 74//126 72//126
f 99//127 136//127 101//127
f 136//128 67//128 101//128
f 67//129 69//129 101//129
f 69//129 71//129 101//129
f 71//129 73//129 101//129
f 73//129 75//129 101//129
f 75//129 77//129 101//129
f 77//129 79//129 101//129
f 79//130 81//130 101//130
f 81//129 83//129 101//129
f 83//130 85//130 101//130
f 85//130 87//130 101//130
f 87//130 89//130 101//130
f 89//130 91//130 101//130
f 91//130 93//130 101//130
f 93//130 95//130 101//130
f 95//130 97//130 101//130
f 97//129 134//129 101//129
f 134//130 131//130 101//130
f 131//130 129//130 101//130
f 129//130 127//130 101//130
f 101//131 105//131 103//131
f 119//51 123//51 121//51
f 101//130 127//130 105//130
f 117//130 123//130 119//130
f 125//132 123//132 117//132
f 127//130 125//130 105//130
f 125//130 117//130 105//130
f 117//130 115//130 105//130
f 115//129 113//129 105//129
f 113//130 111//130 105//130
f 111//133 109//133 107//133
f 105//130 111//130 107//130
f 138//56 140//56 139//56
f 140//57 142//57 141//57
f 143//58 141//58 144//58
f 144//117 146//117 145//117
f 146//60 148//60 147//60
f 149//61 147//61 150//61
f 150//93 152//93 151//93
f 153//134 151//134 154//134
f 154//64 156//64 155//64
f 156//95 158//95 157//95
f 158//96 160//96 159//96
f 160//67 162//67 161//67
f 162//135 164//135 163//135
f 164//136 166//136 165//136
f 166//137 168//137 167//137
f 168//71 170//71 169//71
f 137//99 208//99 207//99
f 170//100 205//100 206//100
f 173//74 174//74 172//74
f 175//101 176//101 174//101
f 177//102 178//102 176//102
f 179//138 180//138 178//138
f 181//104 182//104 180//104
f 183//105 184//105 182//105
f 185//106 186//106 184//106
f 187//107 188//107 186//107
f 189//108 190//108 188//108
f 190//109 189//109 192//109
f 192//110 191//110 194//110
f 194//111 193//111 196//111
f 196//112 195//112 198//112
f 198//139 197//139 200//139
f 200//114 199//114 202//114
f 202//115 201//115 204//115
f 207//99 208//99 171//99
f 206//100 205//100 204//100
f 140//120 138//120 144//120
f 138//121 207//121 144//121
f 207//140 172//140 144//140
f 172//120 174//120 144//120
f 174//120 176//120 144//120
f 176//120 178//120 144//120
f 178//120 180//120 144//120
f 180//120 182//120 144//120
f 182//120 184//120 144//120
f 184//120 186//120 144//120
f 186//125 188//125 144//125
f 188//125 190//125 144//125
f 190//120 192//120 144//120
f 192//125 194//125 144//125
f 194//125 196//125 144//125
f 196//120 198//120 144//120
f 198//121 200//121 144//121
f 200//125 202//125 144//125
f 202//125 204//125 144//125
f 204//121 205//121 144//121
f 205//120 170//120 144//120
f 168//120 166//120 164//120
f 144//120 170//120 146//120
f 170//141 168//141 146//141
f 168//120 164//120 146//120
f 164//126 162//126 146//126
f 162//120 160//120 146//120
f 160//142 158//142 146//142
f 158//120 156//120 146//120
f 156//125 154//125 146//125
f 154//126 152//126 146//126
f 152//143 150//143 148//143
f 146//125 152//125 148//125
f 171//127 208//127 173//127
f 208//144 139//144 173//144
f 139//127 141//127 173//127
f 141//130 143//130 173//130
f 143//129 145//129 173//129
f 145//129 147//129 173//129
f 147//130 149//130 173//130
f 149//129 151//129 173//129
f 151//130 153//130 173//130
f 153//129 155//129 173//129
f 155//130 157//130 173//130
f 157//129 159//129 173//129
f 159//130 161//130 173//130
f 161//130 163//130 173//130
f 163//130 165//130 173//130
f 165//130 167//130 173//130
f 167//52 169//52 173//52
f 169//129 206//129 173//129
f 206//130 203//130 173//130
f 203//130 201//130 173//130
f 201//130 199//130 173//130
f 173//130 177//130 175//130
f 199//145 197//145 173//145
f 197//130 195//130 173//130
f 195//130 193//130 173//130
f 193//145 191//145 173//145
f 191//130 189//130 173//130
f 189//129 187//129 173//129
f 187//129 185//129 173//129
f 185//130 183//130 173//130
f 183//130 181//130 173//130
f 181//129 179//129 173//129
f 179//146 177//146 173//146
