# Blender v2.68 (sub 0) OBJ File: 'braco2.blend'
# www.blender.org
o Cylinder.005_Cylinder.006
v -0.149004 0.997545 -0.500000
v 0.149004 0.997545 -0.500000
v -0.149004 0.900000 -0.490393
v 0.149004 0.900000 -0.490393
v -0.149004 0.806203 -0.461940
v 0.149004 0.806203 -0.461940
v -0.149004 0.719760 -0.415735
v 0.149004 0.719760 -0.415735
v -0.149004 0.643992 -0.353553
v 0.149004 0.643992 -0.353553
v -0.149004 0.581810 -0.277785
v 0.149004 0.581810 -0.277785
v -0.149004 0.474679 -0.183718
v 0.149004 0.474679 -0.183718
v 0.149004 0.529551 -0.222913
v -0.149004 0.529551 -0.222913
v 0.149004 0.279728 0.915735
v -0.149004 0.279728 0.915735
v -0.149004 1.275331 0.415735
v 0.149004 1.275331 0.415735
v -0.149004 1.351099 0.353553
v 0.149004 1.351099 0.353553
v -0.149004 1.413280 0.277785
v 0.149004 1.413280 0.277785
v -0.149004 1.459485 0.191341
v 0.149004 1.459485 0.191341
v -0.149004 1.487938 0.097545
v 0.149004 1.487938 0.097545
v -0.149004 1.497545 -0.000000
v 0.149004 1.497545 -0.000000
v -0.149004 1.487938 -0.097546
v 0.149004 1.487938 -0.097546
v -0.149004 1.459485 -0.191342
v 0.149004 1.459485 -0.191342
v -0.149004 1.413280 -0.277786
v 0.149004 1.413280 -0.277786
v -0.149004 1.351098 -0.353554
v 0.149004 1.351098 -0.353554
v -0.149004 1.275330 -0.415735
v 0.149004 1.275330 -0.415735
v -0.149004 1.188886 -0.461940
v 0.149004 1.188886 -0.461940
v -0.149004 1.095090 -0.490393
v 0.149004 1.095090 -0.490393
v 0.291932 0.017493 0.517959
v -0.149004 0.409123 -0.157496
v 0.149004 0.409123 -0.157496
v -0.149004 0.335700 -0.141762
v 0.149004 0.335700 -0.141762
v -0.149004 0.279728 -0.141762
v 0.149004 0.279728 -0.141762
v 0.159559 0.250000 0.953188
v -0.159559 0.250000 0.953188
v -0.159559 0.250000 -0.179216
v 0.159559 0.250000 -0.179216
vn 0.000000 -0.098017 -0.995185
vn 0.000000 -0.290285 -0.956940
vn 0.000000 -0.471397 -0.881921
vn 0.000000 -0.634394 -0.773010
vn 0.000000 -0.773010 -0.634394
vn 0.000000 -0.581239 -0.813733
vn 0.000000 0.634394 0.773010
vn 0.000000 0.773011 0.634393
vn 0.000000 0.881922 0.471395
vn -0.000001 0.956940 0.290284
vn -0.000000 0.995185 0.098017
vn -0.000000 0.995185 -0.098019
vn -0.000001 0.956940 -0.290285
vn -0.000000 0.881920 -0.471398
vn -0.000000 0.773010 -0.634394
vn 0.000000 0.634393 -0.773011
vn -0.000000 0.471395 -0.881922
vn 0.000000 -0.724138 -0.689655
vn -0.000000 0.098017 -0.995185
vn -0.000000 0.290283 -0.956941
vn -0.000000 0.448792 0.893636
vn 0.000000 -0.371391 -0.928477
vn 0.000000 -0.209529 -0.977802
vn -0.000000 0.000000 -1.000000
vn -0.000000 0.783253 0.621704
vn 0.000000 -1.000000 0.000000
vn -0.942370 0.334571 0.000000
vn 0.000000 0.783253 -0.621704
vn 0.942370 0.334571 0.000000
vn 1.000000 0.000000 0.000000
vn -1.000000 0.000000 -0.000000
vn -0.000001 0.881921 0.471397
vn -0.000000 0.956941 0.290283
vn -0.000001 0.995185 -0.098018
vn -0.000000 0.956940 -0.290286
vn 0.000000 0.773009 -0.634395
s off
f 1//1 2//1 3//1
f 3//2 4//2 5//2
f 5//3 6//3 7//3
f 7//4 8//4 9//4
f 9//5 10//5 11//5
f 16//6 15//6 13//6
f 19//7 20//7 21//7
f 21//8 22//8 23//8
f 23//9 24//9 25//9
f 25//10 26//10 27//10
f 27//11 28//11 29//11
f 29//12 30//12 31//12
f 31//13 32//13 33//13
f 33//14 34//14 35//14
f 35//15 36//15 37//15
f 37//16 38//16 39//16
f 39//17 40//17 41//17
f 11//18 12//18 16//18
f 43//19 44//19 1//19
f 41//20 42//20 43//20
f 20//21 19//21 17//21
f 13//22 14//22 46//22
f 46//23 47//23 48//23
f 48//24 49//24 50//24
f 17//25 18//25 52//25
f 55//26 52//26 54//26
f 18//27 50//27 53//27
f 50//28 51//28 54//28
f 51//29 17//29 55//29
f 6//30 4//30 8//30
f 43//31 1//31 41//31
f 2//1 4//1 3//1
f 4//2 6//2 5//2
f 6//3 8//3 7//3
f 8//4 10//4 9//4
f 10//5 12//5 11//5
f 15//6 14//6 13//6
f 20//7 22//7 21//7
f 22//8 24//8 23//8
f 24//32 26//32 25//32
f 26//33 28//33 27//33
f 28//11 30//11 29//11
f 30//34 32//34 31//34
f 32//35 34//35 33//35
f 34//14 36//14 35//14
f 36//36 38//36 37//36
f 38//16 40//16 39//16
f 40//17 42//17 41//17
f 12//18 15//18 16//18
f 44//19 2//19 1//19
f 42//20 44//20 43//20
f 19//21 18//21 17//21
f 14//22 47//22 46//22
f 47//23 49//23 48//23
f 49//24 51//24 50//24
f 18//25 53//25 52//25
f 52//26 53//26 54//26
f 50//27 54//27 53//27
f 51//28 55//28 54//28
f 17//29 52//29 55//29
f 4//30 2//30 8//30
f 2//30 44//30 8//30
f 42//30 40//30 38//30
f 30//30 34//30 32//30
f 28//30 34//30 30//30
f 44//30 42//30 38//30
f 8//30 44//30 38//30
f 51//30 20//30 17//30
f 10//30 8//30 38//30
f 10//30 38//30 36//30
f 10//30 36//30 34//30
f 10//30 34//30 28//30
f 12//30 10//30 28//30
f 12//30 28//30 26//30
f 12//30 26//30 24//30
f 12//30 24//30 22//30
f 12//30 22//30 20//30
f 15//30 12//30 20//30
f 14//30 15//30 20//30
f 47//30 14//30 20//30
f 49//30 47//30 20//30
f 51//30 49//30 20//30
f 1//31 3//31 41//31
f 3//31 5//31 41//31
f 35//31 31//31 33//31
f 31//31 27//31 29//31
f 35//31 27//31 31//31
f 37//31 27//31 35//31
f 37//31 25//31 27//31
f 19//31 50//31 18//31
f 37//31 23//31 25//31
f 5//31 7//31 41//31
f 7//31 9//31 41//31
f 9//31 11//31 41//31
f 41//31 11//31 39//31
f 37//31 21//31 23//31
f 39//31 21//31 37//31
f 39//31 11//31 21//31
f 21//31 11//31 19//31
f 11//31 16//31 19//31
f 16//31 13//31 19//31
f 13//31 46//31 19//31
f 46//31 48//31 19//31
f 48//31 50//31 19//31
o Cylinder.004_Cylinder.005
v 0.000000 0.164409 -0.900000
v 0.000000 0.250000 -1.000000
v 0.175581 0.164409 -0.882707
v 0.195090 0.250000 -0.980785
v 0.344415 0.164409 -0.831492
v 0.382683 0.250000 -0.923880
v 0.500013 0.164409 -0.748323
v 0.555570 0.250000 -0.831470
v 0.636396 0.164409 -0.636396
v 0.707107 0.250000 -0.707107
v 0.748323 0.164409 -0.500013
v 0.831470 0.250000 -0.555570
v 0.831492 0.164409 -0.344415
v 0.923880 0.250000 -0.382683
v 0.882707 0.164409 -0.175581
v 0.980785 0.250000 -0.195090
v 0.900000 0.164409 -0.000000
v 1.000000 0.250000 -0.000000
v 0.882707 0.164409 0.175581
v 0.980785 0.250000 0.195090
v 0.831492 0.164409 0.344415
v 0.923880 0.250000 0.382683
v 0.748323 0.164409 0.500013
v 0.831470 0.250000 0.555570
v 0.636396 0.164409 0.636396
v 0.707107 0.250000 0.707107
v 0.500013 0.164409 0.748323
v 0.555570 0.250000 0.831470
v 0.344415 0.164409 0.831492
v 0.382683 0.250000 0.923880
v 0.175581 0.164409 0.882707
v 0.195090 0.250000 0.980785
v -0.000000 0.164409 0.900000
v -0.000000 0.250000 1.000000
v -0.175582 0.164409 0.882707
v -0.195091 0.250000 0.980785
v -0.344415 0.164409 0.831491
v -0.382684 0.250000 0.923879
v -0.500014 0.164409 0.748322
v -0.555571 0.250000 0.831469
v -0.636397 0.164409 0.636396
v -0.707107 0.250000 0.707106
v -0.748323 0.164409 0.500013
v -0.831470 0.250000 0.555570
v -0.831492 0.164409 0.344414
v -0.923880 0.250000 0.382683
v -0.882707 0.164409 0.175581
v -0.980785 0.250000 0.195089
v -0.900000 0.164409 -0.000001
v -1.000000 0.250000 -0.000001
v -0.882707 0.164409 -0.175582
v -0.980785 0.250000 -0.195091
v -0.831491 0.164409 -0.344416
v -0.923879 0.250000 -0.382684
v -0.748322 0.164409 -0.500014
v -0.831469 0.250000 -0.555571
v -0.636395 0.164409 -0.636397
v -0.707106 0.250000 -0.707108
v -0.500012 0.164409 -0.748323
v -0.555569 0.250000 -0.831470
v -0.344414 0.164409 -0.831492
v -0.382682 0.250000 -0.923880
v -0.175580 0.164409 -0.882707
v -0.195089 0.250000 -0.980786
vn 0.063913 -0.758167 -0.648921
vn 0.189283 -0.758167 -0.623983
vn 0.307379 -0.758167 -0.575066
vn 0.413663 -0.758167 -0.504050
vn 0.504050 -0.758167 -0.413663
vn 0.575066 -0.758167 -0.307379
vn 0.623983 -0.758167 -0.189283
vn 0.648921 -0.758167 -0.063913
vn 0.648921 -0.758167 0.063913
vn 0.623983 -0.758166 0.189283
vn 0.575066 -0.758167 0.307379
vn 0.504050 -0.758167 0.413663
vn 0.413663 -0.758167 0.504050
vn 0.307379 -0.758167 0.575066
vn 0.189283 -0.758167 0.623984
vn 0.063913 -0.758167 0.648921
vn -0.063913 -0.758167 0.648921
vn -0.189284 -0.758167 0.623983
vn -0.307380 -0.758167 0.575066
vn -0.413663 -0.758167 0.504050
vn -0.504050 -0.758167 0.413663
vn -0.575067 -0.758167 0.307379
vn -0.623983 -0.758167 0.189283
vn -0.648921 -0.758167 0.063913
vn -0.648921 -0.758167 -0.063914
vn -0.623983 -0.758167 -0.189284
vn -0.575066 -0.758167 -0.307380
vn -0.504049 -0.758167 -0.413664
vn -0.413663 -0.758166 -0.504051
vn -0.307379 -0.758167 -0.575067
vn -0.000000 1.000000 0.000000
vn -0.063913 -0.758167 -0.648921
vn -0.189282 -0.758167 -0.623984
vn 0.623983 -0.758167 0.189283
vn 0.575067 -0.758167 0.307379
vn 0.189283 -0.758167 0.623983
vn -0.575066 -0.758167 0.307379
vn -0.623984 -0.758167 0.189283
vn -0.504049 -0.758166 -0.413664
vn -0.413662 -0.758167 -0.504050
s off
f 56//37 57//37 58//37
f 58//38 59//38 60//38
f 60//39 61//39 62//39
f 62//40 63//40 64//40
f 64//41 65//41 66//41
f 66//42 67//42 68//42
f 68//43 69//43 70//43
f 70//44 71//44 72//44
f 72//45 73//45 74//45
f 74//46 75//46 76//46
f 76//47 77//47 78//47
f 78//48 79//48 80//48
f 80//49 81//49 82//49
f 82//50 83//50 84//50
f 84//51 85//51 86//51
f 86//52 87//52 88//52
f 88//53 89//53 90//53
f 90//54 91//54 92//54
f 92//55 93//55 94//55
f 94//56 95//56 96//56
f 96//57 97//57 98//57
f 98//58 99//58 100//58
f 100//59 101//59 102//59
f 102//60 103//60 104//60
f 104//61 105//61 106//61
f 106//62 107//62 108//62
f 108//63 109//63 110//63
f 110//64 111//64 112//64
f 112//65 113//65 114//65
f 114//66 115//66 116//66
f 59//67 57//67 61//67
f 118//68 119//68 56//68
f 116//69 117//69 118//69
f 56//26 58//26 118//26
f 57//37 59//37 58//37
f 59//38 61//38 60//38
f 61//39 63//39 62//39
f 63//40 65//40 64//40
f 65//41 67//41 66//41
f 67//42 69//42 68//42
f 69//43 71//43 70//43
f 71//44 73//44 72//44
f 73//45 75//45 74//45
f 75//70 77//70 76//70
f 77//71 79//71 78//71
f 79//48 81//48 80//48
f 81//49 83//49 82//49
f 83//50 85//50 84//50
f 85//72 87//72 86//72
f 87//52 89//52 88//52
f 89//53 91//53 90//53
f 91//54 93//54 92//54
f 93//55 95//55 94//55
f 95//56 97//56 96//56
f 97//57 99//57 98//57
f 99//73 101//73 100//73
f 101//74 103//74 102//74
f 103//60 105//60 104//60
f 105//61 107//61 106//61
f 107//62 109//62 108//62
f 109//63 111//63 110//63
f 111//75 113//75 112//75
f 113//76 115//76 114//76
f 115//66 117//66 116//66
f 57//67 119//67 61//67
f 119//67 117//67 61//67
f 117//67 115//67 61//67
f 115//67 113//67 61//67
f 113//67 111//67 61//67
f 111//67 109//67 61//67
f 109//67 107//67 61//67
f 107//67 105//67 61//67
f 105//67 103//67 61//67
f 103//67 101//67 61//67
f 101//67 99//67 61//67
f 99//67 97//67 61//67
f 97//67 95//67 61//67
f 93//67 91//67 89//67
f 93//67 89//67 87//67
f 95//67 93//67 87//67
f 61//67 95//67 87//67
f 83//67 87//67 85//67
f 81//67 87//67 83//67
f 79//67 87//67 81//67
f 77//67 87//67 79//67
f 75//67 87//67 77//67
f 65//67 69//67 67//67
f 65//67 71//67 69//67
f 73//67 87//67 75//67
f 71//67 87//67 73//67
f 65//67 87//67 71//67
f 63//67 61//67 87//67
f 65//67 63//67 87//67
f 119//68 57//68 56//68
f 117//69 119//69 118//69
f 58//26 60//26 118//26
f 60//26 62//26 118//26
f 62//26 64//26 118//26
f 64//26 66//26 118//26
f 66//26 68//26 118//26
f 68//26 70//26 118//26
f 70//26 72//26 118//26
f 72//26 74//26 118//26
f 74//26 76//26 118//26
f 76//26 78//26 118//26
f 78//26 80//26 118//26
f 80//26 82//26 118//26
f 116//26 112//26 114//26
f 82//26 84//26 118//26
f 84//26 86//26 118//26
f 86//26 88//26 90//26
f 118//26 86//26 90//26
f 116//26 118//26 90//26
f 112//26 116//26 110//26
f 116//26 90//26 110//26
f 90//26 92//26 110//26
f 92//26 94//26 110//26
f 94//26 96//26 110//26
f 96//26 98//26 110//26
f 98//26 100//26 110//26
f 100//26 102//26 110//26
f 102//26 104//26 110//26
f 104//26 106//26 110//26
f 106//26 108//26 110//26
