# Blender v2.66 (sub 1) OBJ File: ''
# www.blender.org
o Cube
v 0.435318 -0.435318 -0.500000
v 0.500000 -0.435318 -0.435318
v 0.435318 -0.500000 -0.435318
v 0.435318 -0.500000 0.435318
v 0.500000 -0.435318 0.435318
v 0.435318 -0.435318 0.500000
v -0.435318 -0.500000 0.435318
v -0.435318 -0.435318 0.500000
v -0.500000 -0.435318 0.435318
v -0.500000 -0.435318 -0.435318
v -0.435318 -0.435318 -0.500000
v -0.435318 -0.500000 -0.435318
v 0.500000 0.435318 -0.435318
v 0.435319 0.435318 -0.500000
v 0.435318 0.500000 -0.435318
v 0.435318 0.500000 0.435319
v 0.435318 0.435318 0.500000
v 0.500000 0.435318 0.435319
v -0.435319 0.500000 0.435318
v -0.500000 0.435318 0.435318
v -0.435319 0.435318 0.500000
v -0.435318 0.435318 -0.500000
v -0.500000 0.435318 -0.435318
v -0.435318 0.500000 -0.435318
v 0.435318 -0.435318 -0.500000
v 0.500000 -0.435318 -0.435318
v 0.435318 -0.500000 -0.435318
v 0.435318 -0.500000 0.435318
v 0.500000 -0.435318 0.435318
v 0.435318 -0.435318 0.500000
v -0.435318 -0.500000 0.435318
v -0.435318 -0.435318 0.500000
v -0.500000 -0.435318 0.435318
v -0.500000 -0.435318 -0.435318
v -0.435318 -0.435318 -0.500000
v -0.435318 -0.500000 -0.435318
v 0.500000 0.435318 -0.435318
v 0.435319 0.435318 -0.500000
v 0.435318 0.500000 -0.435318
v 0.435318 0.500000 0.435319
v 0.435318 0.435318 0.500000
v 0.500000 0.435318 0.435319
v -0.435319 0.500000 0.435318
v -0.500000 0.435318 0.435318
v -0.435319 0.435318 0.500000
v -0.435318 0.435318 -0.500000
v -0.500000 0.435318 -0.435318
v -0.435318 0.500000 -0.435318
v 0.435318 -0.435318 -0.500000
v 0.500000 -0.435318 -0.435318
v 0.435318 -0.500000 -0.435318
v 0.435318 -0.500000 0.435318
v 0.500000 -0.435318 0.435318
v 0.435318 -0.435318 0.500000
v -0.435318 -0.500000 0.435318
v -0.435318 -0.435318 0.500000
v -0.500000 -0.435318 0.435318
v -0.500000 -0.435318 -0.435318
v -0.435318 -0.435318 -0.500000
v -0.435318 -0.500000 -0.435318
v 0.500000 0.435318 -0.435318
v 0.435319 0.435318 -0.500000
v 0.435318 0.500000 -0.435318
v 0.435318 0.500000 0.435319
v 0.435318 0.435318 0.500000
v 0.500000 0.435318 0.435319
v -0.435319 0.500000 0.435318
v -0.500000 0.435318 0.435318
v -0.435319 0.435318 0.500000
v -0.435318 0.435318 -0.500000
v -0.500000 0.435318 -0.435318
v -0.435318 0.500000 -0.435318
v 0.435318 -0.435318 -0.500000
v 0.500000 -0.435318 -0.435318
v 0.435318 -0.500000 -0.435318
v 0.435318 -0.500000 0.435318
v 0.500000 -0.435318 0.435318
v 0.435318 -0.435318 0.500000
v -0.435318 -0.500000 0.435318
v -0.435318 -0.435318 0.500000
v -0.500000 -0.435318 0.435318
v -0.500000 -0.435318 -0.435318
v -0.435318 -0.435318 -0.500000
v -0.435318 -0.500000 -0.435318
v 0.500000 0.435318 -0.435318
v 0.435319 0.435318 -0.500000
v 0.435318 0.500000 -0.435318
v 0.435318 0.500000 0.435319
v 0.435318 0.435318 0.500000
v 0.500000 0.435318 0.435319
v -0.435319 0.500000 0.435318
v -0.500000 0.435318 0.435318
v -0.435319 0.435318 0.500000
v -0.435318 0.435318 -0.500000
v -0.500000 0.435318 -0.435318
v -0.435318 0.500000 -0.435318
v 0.435318 -0.435318 -0.500000
v -0.435318 -0.435318 -0.500000
v 0.435319 0.435318 -0.500000
v -0.435318 0.435318 -0.500000
v 0.500000 -0.435318 0.435318
v 0.435318 -0.435318 0.500000
v 0.435318 0.435318 0.500000
v 0.500000 0.435318 0.435319
vn -0.000000 -0.000000 1.000000
vn 0.000000 -0.000000 -1.000000
vn 1.000000 0.000000 0.000000
vn 0.000000 -1.000000 0.000000
vn -1.000000 0.000000 0.000000
vn -0.577351 0.577350 0.577350
vn -0.577350 0.577350 -0.577351
vn 0.577350 0.577350 -0.577350
vn 0.577350 0.577350 0.577350
vn -0.577351 -0.577350 0.577350
vn -0.577350 -0.577350 -0.577351
vn 0.577350 -0.577350 -0.577350
vn 0.577350 -0.577350 0.577351
vn -0.707107 0.707107 0.000000
vn -0.000000 0.707107 0.707107
vn -0.707107 -0.000000 0.707106
vn 0.000000 0.707107 -0.707107
vn -0.707106 0.000000 -0.707107
vn 0.707107 0.707107 0.000000
vn 0.707107 0.000000 -0.707107
vn 0.707107 -0.000000 0.707107
vn -0.707107 -0.707107 -0.000000
vn -0.000000 -0.707107 0.707107
vn 0.000000 -0.707107 -0.707107
vn 0.707107 -0.707107 0.000000
vn -0.000000 1.000000 0.000000
vn 0.000000 0.000000 0.000000
vn 0.577351 -0.577350 -0.577350
vn -0.577350 -0.577350 0.577350
vn -0.577350 -0.577350 -0.577350
vn 0.577351 0.577350 -0.577350
vn 0.577350 0.577350 0.577351
vn -0.577350 0.577350 0.577350
vn 0.707107 0.000000 -0.707106
vn -0.707107 -0.000000 0.707107
vn -0.707107 -0.000000 -0.707107
vn 0.707106 -0.000000 0.707107
s off
f 14//1 22//1 1//1
f 6//2 8//2 21//2
f 9//3 10//3 23//3
f 15//4 16//4 19//4
f 2//5 5//5 13//5
f 1//6 3//6 2//6
f 4//7 6//7 5//7
f 7//8 9//8 8//8
f 10//9 12//9 11//9
f 13//10 15//10 14//10
f 16//11 18//11 17//11
f 19//12 21//12 20//12
f 22//13 24//13 23//13
f 2//14 3//14 5//14
f 3//15 1//15 12//15
f 1//16 2//16 14//16
f 6//17 4//17 7//17
f 5//18 6//18 18//18
f 9//19 7//19 12//19
f 8//20 9//20 20//20
f 10//21 11//21 22//21
f 15//22 13//22 16//22
f 14//23 15//23 22//23
f 16//24 17//24 21//24
f 19//25 20//25 23//25
f 3//26 12//26 7//26
f 38//1 46//1 25//1
f 30//2 32//2 45//2
f 33//3 34//3 47//3
f 39//4 40//4 43//4
f 26//5 29//5 37//5
f 25//6 27//6 26//6
f 28//7 30//7 29//7
f 31//8 33//8 32//8
f 34//9 36//9 35//9
f 37//10 39//10 38//10
f 40//11 42//11 41//11
f 43//12 45//12 44//12
f 46//13 48//13 47//13
f 26//14 27//14 29//14
f 27//15 25//15 36//15
f 25//16 26//16 38//16
f 30//17 28//17 31//17
f 29//18 30//18 42//18
f 33//19 31//19 36//19
f 32//20 33//20 44//20
f 34//21 35//21 46//21
f 39//22 37//22 40//22
f 38//23 39//23 46//23
f 40//24 41//24 45//24
f 43//25 44//25 47//25
f 27//26 36//26 31//26
f 62//1 70//1 49//1
f 54//2 56//2 69//2
f 57//3 58//3 71//3
f 63//4 64//4 67//4
f 50//5 53//5 61//5
f 49//6 51//6 50//6
f 52//7 54//7 53//7
f 55//8 57//8 56//8
f 58//9 60//9 59//9
f 61//10 63//10 62//10
f 64//11 66//11 65//11
f 67//12 69//12 68//12
f 70//13 72//13 71//13
f 50//14 51//14 53//14
f 51//15 49//15 60//15
f 49//16 50//16 62//16
f 54//17 52//17 55//17
f 53//18 54//18 66//18
f 57//19 55//19 60//19
f 56//20 57//20 68//20
f 58//21 59//21 70//21
f 63//22 61//22 64//22
f 62//23 63//23 70//23
f 64//24 65//24 69//24
f 67//25 68//25 71//25
f 51//26 60//26 55//26
f 73//27 83//27 98//27
f 78//1 89//1 80//1
f 81//5 92//5 82//5
f 87//26 96//26 91//26
f 74//3 85//3 90//3
f 73//28 74//28 75//28
f 76//13 77//13 78//13
f 79//29 80//29 81//29
f 82//30 83//30 84//30
f 85//31 86//31 87//31
f 88//32 89//32 90//32
f 91//33 92//33 93//33
f 94//7 95//7 96//7
f 74//25 77//25 76//25
f 75//24 84//24 83//24
f 73//34 86//34 85//34
f 78//23 80//23 76//23
f 90//27 89//27 103//27
f 81//22 82//22 79//22
f 80//35 93//35 81//35
f 82//36 95//36 83//36
f 87//19 88//19 90//19
f 86//17 94//17 96//17
f 88//15 91//15 89//15
f 91//14 96//14 92//14
f 75//4 76//4 79//4
f 99//2 97//2 98//2
f 94//27 86//27 99//27
f 86//27 73//27 97//27
f 83//27 94//27 100//27
f 101//37 104//37 103//37
f 77//27 90//27 104//27
f 89//27 78//27 102//27
f 78//27 77//27 101//27
f 22//1 11//1 1//1
f 17//2 6//2 21//2
f 20//3 9//3 23//3
f 24//4 15//4 19//4
f 5//5 18//5 13//5
f 3//14 4//14 5//14
f 1//15 11//15 12//15
f 2//16 13//16 14//16
f 8//17 6//17 7//17
f 6//18 17//18 18//18
f 10//19 9//19 12//19
f 21//20 8//20 20//20
f 23//37 10//37 22//37
f 13//22 18//22 16//22
f 15//23 24//23 22//23
f 19//24 16//24 21//24
f 24//25 19//25 23//25
f 4//26 3//26 7//26
f 46//1 35//1 25//1
f 41//2 30//2 45//2
f 44//3 33//3 47//3
f 48//4 39//4 43//4
f 29//5 42//5 37//5
f 27//14 28//14 29//14
f 25//15 35//15 36//15
f 26//16 37//16 38//16
f 32//17 30//17 31//17
f 30//18 41//18 42//18
f 34//19 33//19 36//19
f 45//20 32//20 44//20
f 47//37 34//37 46//37
f 37//22 42//22 40//22
f 39//23 48//23 46//23
f 43//24 40//24 45//24
f 48//25 43//25 47//25
f 28//26 27//26 31//26
f 70//1 59//1 49//1
f 65//2 54//2 69//2
f 68//3 57//3 71//3
f 72//4 63//4 67//4
f 53//5 66//5 61//5
f 51//14 52//14 53//14
f 49//15 59//15 60//15
f 50//16 61//16 62//16
f 56//17 54//17 55//17
f 54//18 65//18 66//18
f 58//19 57//19 60//19
f 69//20 56//20 68//20
f 71//37 58//37 70//37
f 61//22 66//22 64//22
f 63//23 72//23 70//23
f 67//24 64//24 69//24
f 72//25 67//25 71//25
f 52//26 51//26 55//26
f 97//27 73//27 98//27
f 89//1 93//1 80//1
f 92//5 95//5 82//5
f 88//26 87//26 91//26
f 77//3 74//3 90//3
f 75//25 74//25 76//25
f 73//24 75//24 83//24
f 74//34 73//34 85//34
f 80//23 79//23 76//23
f 104//27 90//27 103//27
f 82//22 84//22 79//22
f 93//35 92//35 81//35
f 95//18 94//18 83//18
f 85//19 87//19 90//19
f 87//17 86//17 96//17
f 91//15 93//15 89//15
f 96//14 95//14 92//14
f 84//4 75//4 79//4
f 100//2 99//2 98//2
f 100//27 94//27 99//27
f 99//27 86//27 97//27
f 98//27 83//27 100//27
f 102//37 101//37 103//37
f 101//27 77//27 104//27
f 103//27 89//27 102//27
f 102//27 78//27 101//27
