# Blender v2.66 (sub 1) OBJ File: 'braco2.blend'
# www.blender.org
o Base_Punho_Cylinder.017
v 0.500000 -0.100000 -0.000000
v 0.405000 -0.000000 -0.000000
v 0.490393 -0.100000 0.097545
v 0.397218 -0.000000 0.079012
v 0.461940 -0.100000 0.191342
v 0.374171 -0.000000 0.154987
v 0.415735 -0.100000 0.277785
v 0.336745 -0.000000 0.225006
v 0.353553 -0.100000 0.353553
v 0.286378 -0.000000 0.286378
v 0.277785 -0.100000 0.415735
v 0.225006 -0.000000 0.336745
v 0.191342 -0.100000 0.461940
v 0.154987 -0.000000 0.374171
v 0.097545 -0.100000 0.490393
v 0.079012 -0.000000 0.397218
v 0.000000 -0.100000 0.500000
v 0.000000 -0.000000 0.405000
v -0.097545 -0.100000 0.490393
v -0.079011 -0.000000 0.397218
v -0.191342 -0.100000 0.461940
v -0.154987 -0.000000 0.374171
v -0.277785 -0.100000 0.415735
v -0.225006 -0.000000 0.336745
v -0.353553 -0.100000 0.353553
v -0.286378 -0.000000 0.286378
v -0.415735 -0.100000 0.277785
v -0.336745 -0.000000 0.225006
v -0.461940 -0.100000 0.191342
v -0.374171 -0.000000 0.154987
v -0.490393 -0.100000 0.097545
v -0.397218 -0.000000 0.079012
v -0.500000 -0.100000 -0.000000
v -0.405000 -0.000000 -0.000000
v -0.490393 -0.100000 -0.097545
v -0.397218 -0.000000 -0.079012
v -0.461940 -0.100000 -0.191342
v -0.374171 -0.000000 -0.154987
v -0.415735 -0.100000 -0.277785
v -0.336745 -0.000000 -0.225006
v -0.353553 -0.100000 -0.353554
v -0.286378 -0.000000 -0.286378
v -0.277785 -0.100000 -0.415735
v -0.225006 -0.000000 -0.336745
v -0.191341 -0.100000 -0.461940
v -0.154987 -0.000000 -0.374171
v -0.097545 -0.100000 -0.490393
v -0.079011 -0.000000 -0.397218
v 0.000000 -0.100000 -0.500000
v 0.000000 -0.000000 -0.405000
v 0.097546 -0.100000 -0.490393
v 0.079012 -0.000000 -0.397218
v 0.191342 -0.100000 -0.461940
v 0.154987 -0.000000 -0.374171
v 0.277786 -0.100000 -0.415734
v 0.225006 -0.000000 -0.336745
v 0.353554 -0.100000 -0.353553
v 0.286379 -0.000000 -0.286378
v 0.415735 -0.100000 -0.277785
v 0.336746 -0.000000 -0.225006
v 0.461940 -0.100000 -0.191341
v 0.374171 -0.000000 -0.154986
v 0.490393 -0.100000 -0.097544
v 0.397218 -0.000000 -0.079011
v 1.183966 -0.400000 -0.000000
v 1.162565 -0.400000 0.131686
v 1.099186 -0.400000 0.258311
v 0.996265 -0.400000 0.375010
v -0.996265 -0.400000 0.375010
v -1.099187 -0.400000 0.258311
v -1.162565 -0.400000 0.131686
v -1.183966 -0.400000 -0.000000
v -1.162565 -0.400000 -0.131686
v -1.099186 -0.400000 -0.258312
v -0.996265 -0.400000 -0.375010
v 0.996266 -0.400000 -0.375009
v 1.099187 -0.400000 -0.258310
v 1.162565 -0.400000 -0.131685
v 1.183966 -0.400000 -0.000000
v 1.162565 -0.400000 0.131686
v 1.099186 -0.400000 0.258311
v 0.996265 -0.400000 0.375010
v 0.996266 -0.400000 -0.375009
v 1.099187 -0.400000 -0.258310
v 1.162565 -0.400000 -0.131685
vn 0.723158 0.687000 0.071225
vn 0.695368 0.687000 0.210937
vn 0.640855 0.687000 0.342544
vn 0.561714 0.687000 0.460986
vn 0.460986 0.687000 0.561714
vn 0.342544 0.687000 0.640855
vn 0.210938 0.687000 0.695367
vn 0.071225 0.687000 0.723158
vn -0.071225 0.687000 0.723158
vn -0.210937 0.687000 0.695368
vn -0.342544 0.687000 0.640855
vn -0.460987 0.687000 0.561713
vn -0.561714 0.687000 0.460987
vn -0.640854 0.687000 0.342544
vn -0.695368 0.687000 0.210937
vn -0.723158 0.687000 0.071224
vn -0.723158 0.687000 -0.071225
vn -0.695367 0.687000 -0.210938
vn -0.640854 0.687000 -0.342544
vn -0.561713 0.687000 -0.460987
vn -0.460986 0.687000 -0.561714
vn -0.342543 0.687000 -0.640855
vn -0.210937 0.687000 -0.695368
vn -0.071224 0.687000 -0.723158
vn 0.071226 0.687000 -0.723158
vn 0.210938 0.687000 -0.695367
vn 0.342545 0.687000 -0.640854
vn 0.460987 0.687000 -0.561713
vn 0.561714 0.687000 -0.460986
vn 0.640855 0.687000 -0.342543
vn -0.000000 1.000000 -0.000000
vn 0.723158 0.687000 -0.071224
vn 0.695368 0.687000 -0.210937
vn 0.000000 -1.000000 0.000000
vn -0.000001 -0.308298 0.951290
vn -0.399423 -0.908725 0.121163
vn 0.417729 -0.880709 0.223281
vn 0.405546 -0.913202 0.039943
vn 0.411822 -0.902661 -0.124925
vn -0.401365 -0.915065 -0.039531
vn -0.397814 -0.892485 -0.212636
vn -0.401365 -0.915065 0.039531
vn -0.397814 -0.892485 0.212635
vn 0.411822 -0.902661 0.124925
vn 0.405546 -0.913202 -0.039943
vn 0.417729 -0.880709 -0.223281
vn -0.000000 -0.308297 -0.951290
vn -0.399423 -0.908725 -0.121164
vn 0.561714 0.687000 0.460987
vn 0.460987 0.687000 0.561713
vn 0.342544 0.687000 0.640854
vn -0.460986 0.687000 0.561714
vn -0.561714 0.687000 0.460986
vn -0.723158 0.687000 0.071225
vn -0.723158 0.687000 -0.071226
vn -0.695368 0.687000 -0.210938
vn -0.561714 0.687000 -0.460987
vn -0.342544 0.687000 -0.640855
vn 0.342544 0.687000 -0.640854
vn 0.695368 0.687000 -0.210936
vn -0.000000 -0.308296 0.951290
vn -0.400009 -0.894376 0.200212
vn 0.373587 -0.867107 0.329482
vn 0.400825 -0.913836 0.065139
vn 0.391354 -0.899151 -0.195881
vn -0.403903 -0.912444 -0.065639
vn -0.386037 -0.857357 -0.340463
vn -0.403903 -0.912444 0.065638
vn -0.386037 -0.857357 0.340462
vn 0.391354 -0.899151 0.195882
vn 0.400825 -0.913836 -0.065139
vn 0.373586 -0.867107 -0.329482
vn -0.400009 -0.894375 -0.200214
s off
f 1//1 2//1 4//1
f 3//2 4//2 6//2
f 5//3 6//3 8//3
f 7//4 8//4 10//4
f 9//5 10//5 12//5
f 11//6 12//6 14//6
f 13//7 14//7 16//7
f 15//8 16//8 18//8
f 17//9 18//9 19//9
f 19//10 20//10 21//10
f 21//11 22//11 23//11
f 23//12 24//12 25//12
f 25//13 26//13 27//13
f 27//14 28//14 29//14
f 29//15 30//15 31//15
f 31//16 32//16 33//16
f 33//17 34//17 35//17
f 35//18 36//18 37//18
f 37//19 38//19 39//19
f 39//20 40//20 41//20
f 41//21 42//21 43//21
f 43//22 44//22 45//22
f 45//23 46//23 47//23
f 47//24 48//24 49//24
f 49//25 50//25 52//25
f 51//26 52//26 54//26
f 53//27 54//27 56//27
f 55//28 56//28 58//28
f 57//29 58//29 60//29
f 59//30 60//30 62//30
f 4//31 2//31 6//31
f 63//32 64//32 2//32
f 61//33 62//33 64//33
f 1//34 3//34 63//34
f 59//35 39//35 83//35
f 77//31 76//31 78//31
f 63//36 61//36 85//36
f 39//37 37//37 75//37
f 35//38 33//38 73//38
f 31//39 29//39 70//39
f 3//40 1//40 79//40
f 7//41 5//41 81//41
f 1//42 63//42 79//42
f 61//43 59//43 84//43
f 37//44 35//44 74//44
f 33//45 31//45 71//45
f 29//46 27//46 69//46
f 27//47 7//47 69//47
f 5//48 3//48 80//48
f 57//31 55//31 59//31
f 9//34 11//34 7//34
f 3//1 1//1 4//1
f 5//2 3//2 6//2
f 7//3 5//3 8//3
f 9//49 7//49 10//49
f 11//50 9//50 12//50
f 13//51 11//51 14//51
f 15//7 13//7 16//7
f 17//8 15//8 18//8
f 18//9 20//9 19//9
f 20//10 22//10 21//10
f 22//11 24//11 23//11
f 24//52 26//52 25//52
f 26//53 28//53 27//53
f 28//14 30//14 29//14
f 30//15 32//15 31//15
f 32//54 34//54 33//54
f 34//55 36//55 35//55
f 36//56 38//56 37//56
f 38//19 40//19 39//19
f 40//57 42//57 41//57
f 42//21 44//21 43//21
f 44//58 46//58 45//58
f 46//23 48//23 47//23
f 48//24 50//24 49//24
f 51//25 49//25 52//25
f 53//26 51//26 54//26
f 55//59 53//59 56//59
f 57//28 55//28 58//28
f 59//29 57//29 60//29
f 61//30 59//30 62//30
f 2//31 64//31 6//31
f 64//31 62//31 6//31
f 62//31 60//31 6//31
f 60//31 58//31 6//31
f 58//31 56//31 6//31
f 56//31 54//31 6//31
f 54//31 52//31 6//31
f 52//31 50//31 6//31
f 50//31 48//31 6//31
f 48//31 46//31 6//31
f 46//31 44//31 6//31
f 44//31 42//31 6//31
f 42//31 40//31 6//31
f 40//31 38//31 6//31
f 38//31 36//31 6//31
f 36//31 34//31 6//31
f 34//31 32//31 6//31
f 32//31 30//31 6//31
f 30//31 28//31 6//31
f 28//31 26//31 6//31
f 26//31 24//31 6//31
f 24//31 22//31 6//31
f 22//31 20//31 6//31
f 20//31 18//31 6//31
f 18//31 16//31 6//31
f 16//31 14//31 6//31
f 14//31 12//31 6//31
f 12//31 10//31 6//31
f 10//31 8//31 6//31
f 1//32 63//32 2//32
f 63//60 61//60 64//60
f 3//34 5//34 63//34
f 5//34 7//34 63//34
f 7//34 9//34 63//34
f 9//34 11//34 63//34
f 11//34 13//34 63//34
f 13//34 15//34 63//34
f 15//34 17//34 63//34
f 17//34 19//34 63//34
f 19//34 21//34 63//34
f 21//34 23//34 63//34
f 23//34 25//34 63//34
f 25//34 27//34 63//34
f 27//34 29//34 63//34
f 29//34 31//34 63//34
f 31//34 33//34 63//34
f 33//34 35//34 63//34
f 35//34 37//34 63//34
f 37//34 39//34 63//34
f 39//34 41//34 63//34
f 41//34 43//34 63//34
f 43//34 45//34 63//34
f 45//34 47//34 63//34
f 47//34 49//34 63//34
f 49//34 51//34 63//34
f 51//34 53//34 63//34
f 53//34 55//34 63//34
f 55//34 57//34 63//34
f 57//34 59//34 61//34
f 63//34 57//34 61//34
f 39//61 75//61 83//61
f 76//31 75//31 78//31
f 75//31 74//31 78//31
f 74//31 73//31 78//31
f 73//31 72//31 78//31
f 72//31 71//31 78//31
f 71//31 70//31 78//31
f 70//31 69//31 78//31
f 69//31 68//31 78//31
f 68//31 67//31 78//31
f 67//31 66//31 78//31
f 66//31 65//31 78//31
f 61//62 84//62 85//62
f 37//63 74//63 75//63
f 33//64 72//64 73//64
f 71//65 31//65 70//65
f 80//66 3//66 79//66
f 82//67 7//67 81//67
f 63//68 85//68 79//68
f 59//69 83//69 84//69
f 35//70 73//70 74//70
f 72//71 33//71 71//71
f 70//72 29//72 69//72
f 7//47 82//47 69//47
f 81//73 5//73 80//73
f 55//31 53//31 59//31
f 53//31 51//31 59//31
f 51//31 49//31 59//31
f 49//31 47//31 59//31
f 47//31 45//31 59//31
f 45//31 43//31 59//31
f 43//31 41//31 39//31
f 59//31 43//31 39//31
f 11//34 13//34 7//34
f 13//34 15//34 7//34
f 15//34 17//34 7//34
f 17//34 19//34 7//34
f 19//34 21//34 7//34
f 21//34 23//34 7//34
f 23//34 25//34 27//34
f 7//34 23//34 27//34
