# Blender v2.68 (sub 0) OBJ File: 'braco2.blend'
# www.blender.org
o Base_Punho_Cylinder.017
v 0.800000 -0.100000 -0.000000
v 0.705000 -0.000000 -0.000000
v 0.790393 -0.100000 0.097545
v 0.697218 -0.000000 0.079012
v 0.761940 -0.100000 0.191342
v 0.674171 -0.000000 0.154987
v 0.715735 -0.100000 0.277785
v 0.636745 -0.000000 0.225006
v 0.653553 -0.100000 0.353553
v 0.586378 -0.000000 0.286378
v 0.577785 -0.100000 0.415735
v 0.525006 -0.000000 0.336745
v 0.491342 -0.100000 0.461940
v 0.454987 -0.000000 0.374171
v 0.397545 -0.100000 0.490393
v 0.379012 -0.000000 0.397218
v 0.300000 -0.100000 0.500000
v 0.300000 -0.000000 0.405000
v 0.202455 -0.100000 0.490393
v 0.220989 -0.000000 0.397218
v 0.108658 -0.100000 0.461940
v 0.145013 -0.000000 0.374171
v 0.022215 -0.100000 0.415735
v 0.074994 -0.000000 0.336745
v -0.053553 -0.100000 0.353553
v 0.013622 -0.000000 0.286378
v -0.115735 -0.100000 0.277785
v -0.036745 -0.000000 0.225006
v -0.161940 -0.100000 0.191342
v -0.074171 -0.000000 0.154987
v -0.190393 -0.100000 0.097545
v -0.097218 -0.000000 0.079012
v -0.200000 -0.100000 -0.000000
v -0.105000 -0.000000 -0.000000
v -0.190393 -0.100000 -0.097545
v -0.097218 -0.000000 -0.079012
v -0.161940 -0.100000 -0.191342
v -0.074171 -0.000000 -0.154987
v -0.115735 -0.100000 -0.277785
v -0.036745 -0.000000 -0.225006
v -0.053553 -0.100000 -0.353554
v 0.013622 -0.000000 -0.286378
v 0.022215 -0.100000 -0.415735
v 0.074994 -0.000000 -0.336745
v 0.108659 -0.100000 -0.461940
v 0.145013 -0.000000 -0.374171
v 0.202455 -0.100000 -0.490393
v 0.220989 -0.000000 -0.397218
v 0.300000 -0.100000 -0.500000
v 0.300000 -0.000000 -0.405000
v 0.397546 -0.100000 -0.490393
v 0.379012 -0.000000 -0.397218
v 0.491342 -0.100000 -0.461940
v 0.454987 -0.000000 -0.374171
v 0.577786 -0.100000 -0.415734
v 0.525006 -0.000000 -0.336745
v 0.653554 -0.100000 -0.353553
v 0.586379 -0.000000 -0.286378
v 0.715735 -0.100000 -0.277785
v 0.636746 -0.000000 -0.225006
v 0.761940 -0.100000 -0.191341
v 0.674171 -0.000000 -0.154986
v 0.790393 -0.100000 -0.097544
v 0.697218 -0.000000 -0.079011
v 1.483966 -0.400000 -0.000000
v 1.462565 -0.400000 0.131686
v 1.399186 -0.400000 0.258311
v 1.296265 -0.400000 0.375010
v -0.696265 -0.400000 0.375010
v -0.799187 -0.400000 0.258311
v -0.862565 -0.400000 0.131686
v -0.883966 -0.400000 -0.000000
v -0.862565 -0.400000 -0.131686
v -0.799186 -0.400000 -0.258312
v -0.696265 -0.400000 -0.375010
v 1.296266 -0.400000 -0.375009
v 1.399187 -0.400000 -0.258310
v 1.462565 -0.400000 -0.131685
v 1.483966 -0.400000 -0.000000
v 1.462565 -0.400000 0.131686
v 1.399186 -0.400000 0.258311
v 1.296265 -0.400000 0.375010
v 1.296266 -0.400000 -0.375009
v 1.399187 -0.400000 -0.258310
v 1.462565 -0.400000 -0.131685
vn 0.723158 0.687000 0.071225
vn 0.695368 0.687000 0.210937
vn 0.640854 0.687000 0.342544
vn 0.561713 0.687000 0.460987
vn 0.460987 0.687000 0.561714
vn 0.342544 0.687000 0.640854
vn 0.210938 0.687000 0.695367
vn 0.071225 0.687000 0.723158
vn -0.071225 0.687000 0.723158
vn -0.210937 0.687000 0.695368
vn -0.342544 0.687000 0.640855
vn -0.460987 0.687000 0.561713
vn -0.561714 0.687000 0.460987
vn -0.640854 0.687000 0.342544
vn -0.695368 0.687000 0.210937
vn -0.723158 0.687000 0.071224
vn -0.723158 0.687000 -0.071225
vn -0.695367 0.687000 -0.210938
vn -0.640854 0.687000 -0.342544
vn -0.561713 0.687000 -0.460987
vn -0.460986 0.687000 -0.561714
vn -0.342543 0.687000 -0.640855
vn -0.210937 0.687000 -0.695368
vn -0.071224 0.687000 -0.723158
vn 0.071226 0.687000 -0.723158
vn 0.210938 0.687000 -0.695367
vn 0.342544 0.687000 -0.640854
vn 0.460987 0.687000 -0.561713
vn 0.561714 0.687000 -0.460986
vn 0.640855 0.687000 -0.342543
vn -0.000000 1.000000 -0.000000
vn 0.723158 0.687000 -0.071225
vn 0.695368 0.687000 -0.210936
vn 0.000000 -1.000000 0.000000
vn -0.000001 -0.308298 0.951290
vn -0.399423 -0.908725 0.121163
vn 0.397814 -0.892485 0.212636
vn 0.401364 -0.915065 0.039531
vn 0.399422 -0.908725 -0.121163
vn -0.401365 -0.915065 -0.039531
vn -0.397814 -0.892485 -0.212636
vn -0.401365 -0.915065 0.039531
vn -0.397814 -0.892485 0.212635
vn 0.399422 -0.908725 0.121164
vn 0.401364 -0.915065 -0.039531
vn 0.397814 -0.892485 -0.212636
vn -0.000000 -0.308297 -0.951290
vn -0.399423 -0.908725 -0.121164
vn 0.695367 0.687000 0.210938
vn 0.561714 0.687000 0.460986
vn 0.460986 0.687000 0.561714
vn -0.460986 0.687000 0.561714
vn -0.561714 0.687000 0.460986
vn -0.723158 0.687000 0.071225
vn -0.723158 0.687000 -0.071226
vn -0.695368 0.687000 -0.210938
vn -0.561714 0.687000 -0.460987
vn -0.342544 0.687000 -0.640855
vn 0.342545 0.687000 -0.640854
vn 0.460987 0.687000 -0.561714
vn 0.723158 0.687000 -0.071224
vn 0.695368 0.687000 -0.210937
vn -0.000000 -0.308296 0.951290
vn -0.400009 -0.894376 0.200212
vn 0.386036 -0.857357 0.340462
vn 0.403903 -0.912444 0.065639
vn 0.400009 -0.894376 -0.200213
vn -0.403903 -0.912444 -0.065639
vn -0.386036 -0.857357 -0.340463
vn -0.403903 -0.912444 0.065639
vn -0.386037 -0.857357 0.340462
vn 0.400009 -0.894375 0.200214
vn 0.403903 -0.912444 -0.065639
vn 0.386036 -0.857357 -0.340462
vn -0.400009 -0.894375 -0.200213
s off
f 1//1 2//1 3//1
f 3//2 4//2 5//2
f 5//3 6//3 7//3
f 7//4 8//4 9//4
f 9//5 10//5 11//5
f 11//6 12//6 13//6
f 13//7 14//7 15//7
f 15//8 16//8 17//8
f 17//9 18//9 19//9
f 19//10 20//10 21//10
f 21//11 22//11 23//11
f 23//12 24//12 25//12
f 25//13 26//13 27//13
f 27//14 28//14 29//14
f 29//15 30//15 31//15
f 31//16 32//16 33//16
f 33//17 34//17 35//17
f 35//18 36//18 37//18
f 37//19 38//19 39//19
f 39//20 40//20 41//20
f 41//21 42//21 43//21
f 43//22 44//22 45//22
f 45//23 46//23 47//23
f 47//24 48//24 49//24
f 49//25 50//25 51//25
f 51//26 52//26 53//26
f 53//27 54//27 55//27
f 55//28 56//28 57//28
f 57//29 58//29 59//29
f 59//30 60//30 61//30
f 4//31 2//31 6//31
f 63//32 64//32 1//32
f 61//33 62//33 63//33
f 1//34 3//34 63//34
f 59//35 39//35 83//35
f 71//31 73//31 72//31
f 63//36 61//36 85//36
f 39//37 37//37 74//37
f 35//38 33//38 72//38
f 31//39 29//39 71//39
f 3//40 1//40 79//40
f 7//41 5//41 81//41
f 1//42 63//42 79//42
f 61//43 59//43 84//43
f 37//44 35//44 73//44
f 33//45 31//45 72//45
f 29//46 27//46 70//46
f 27//47 7//47 69//47
f 5//48 3//48 80//48
f 57//31 55//31 59//31
f 9//34 11//34 7//34
f 2//1 4//1 3//1
f 4//49 6//49 5//49
f 6//3 8//3 7//3
f 8//50 10//50 9//50
f 10//51 12//51 11//51
f 12//6 14//6 13//6
f 14//7 16//7 15//7
f 16//8 18//8 17//8
f 18//9 20//9 19//9
f 20//10 22//10 21//10
f 22//11 24//11 23//11
f 24//52 26//52 25//52
f 26//53 28//53 27//53
f 28//14 30//14 29//14
f 30//15 32//15 31//15
f 32//54 34//54 33//54
f 34//55 36//55 35//55
f 36//56 38//56 37//56
f 38//19 40//19 39//19
f 40//57 42//57 41//57
f 42//21 44//21 43//21
f 44//58 46//58 45//58
f 46//23 48//23 47//23
f 48//24 50//24 49//24
f 50//25 52//25 51//25
f 52//26 54//26 53//26
f 54//59 56//59 55//59
f 56//60 58//60 57//60
f 58//29 60//29 59//29
f 60//30 62//30 61//30
f 2//31 64//31 6//31
f 64//31 62//31 6//31
f 62//31 60//31 6//31
f 60//31 58//31 6//31
f 58//31 56//31 6//31
f 56//31 54//31 6//31
f 54//31 52//31 6//31
f 52//31 50//31 6//31
f 50//31 48//31 6//31
f 48//31 46//31 6//31
f 46//31 44//31 6//31
f 8//31 12//31 10//31
f 44//31 42//31 40//31
f 6//31 44//31 40//31
f 8//31 6//31 12//31
f 6//31 40//31 12//31
f 40//31 38//31 12//31
f 36//31 34//31 32//31
f 38//31 36//31 12//31
f 36//31 32//31 12//31
f 32//31 30//31 12//31
f 30//31 28//31 12//31
f 28//31 26//31 12//31
f 26//31 24//31 12//31
f 24//31 22//31 12//31
f 22//31 20//31 12//31
f 20//31 18//31 12//31
f 18//31 16//31 12//31
f 16//31 14//31 12//31
f 64//61 2//61 1//61
f 62//62 64//62 63//62
f 3//34 5//34 63//34
f 5//34 7//34 63//34
f 7//34 9//34 63//34
f 9//34 11//34 63//34
f 11//34 13//34 63//34
f 13//34 15//34 63//34
f 15//34 17//34 63//34
f 17//34 19//34 63//34
f 19//34 21//34 63//34
f 21//34 23//34 63//34
f 23//34 25//34 63//34
f 25//34 27//34 63//34
f 27//34 29//34 63//34
f 29//34 31//34 63//34
f 31//34 33//34 63//34
f 63//34 33//34 61//34
f 61//34 33//34 59//34
f 33//34 35//34 59//34
f 55//34 51//34 53//34
f 35//34 37//34 39//34
f 35//34 39//34 41//34
f 35//34 41//34 43//34
f 35//34 43//34 45//34
f 35//34 45//34 47//34
f 57//34 51//34 55//34
f 35//34 47//34 49//34
f 35//34 49//34 51//34
f 59//34 35//34 57//34
f 35//34 51//34 57//34
f 39//63 75//63 83//63
f 71//31 74//31 73//31
f 78//31 66//31 65//31
f 78//31 67//31 66//31
f 70//31 74//31 71//31
f 70//31 75//31 74//31
f 76//31 75//31 70//31
f 78//31 77//31 67//31
f 77//31 76//31 67//31
f 76//31 70//31 67//31
f 70//31 69//31 67//31
f 69//31 68//31 67//31
f 61//64 84//64 85//64
f 75//65 39//65 74//65
f 73//66 35//66 72//66
f 29//67 70//67 71//67
f 80//68 3//68 79//68
f 82//69 7//69 81//69
f 63//70 85//70 79//70
f 59//71 83//71 84//71
f 74//72 37//72 73//72
f 31//73 71//73 72//73
f 27//74 69//74 70//74
f 7//47 82//47 69//47
f 81//75 5//75 80//75
f 55//31 53//31 59//31
f 51//31 49//31 47//31
f 53//31 51//31 47//31
f 59//31 53//31 39//31
f 53//31 47//31 39//31
f 47//31 45//31 39//31
f 45//31 43//31 39//31
f 43//31 41//31 39//31
f 11//34 13//34 7//34
f 13//34 15//34 17//34
f 7//34 13//34 27//34
f 13//34 17//34 27//34
f 17//34 19//34 27//34
f 19//34 21//34 27//34
f 21//34 23//34 25//34
f 27//34 21//34 25//34
