# Blender v2.68 (sub 0) OBJ File: 'braco2.blend'
# www.blender.org
o Cube.001_Cube
v 0.100000 -0.400000 -0.380000
v 0.100000 -0.400000 0.380000
v 0.100000 0.600000 -0.380000
v 0.100000 0.600000 0.380000
v 1.600000 -0.400000 0.380000
v 1.600000 -0.400000 -0.380000
v 1.800000 -0.400000 -0.380000
v 1.800000 -0.400000 0.380000
v 1.600000 0.600000 0.380000
v 1.600000 0.600000 -0.380000
v 1.800000 0.600000 -0.380000
v 1.800000 0.600000 0.380000
v -0.080611 -0.174236 0.208420
v -0.100000 -0.120856 0.160856
v -0.080611 -0.174236 -0.208420
v -0.100000 -0.120856 -0.160856
v -0.080611 0.374236 0.208420
v -0.100000 0.320857 0.160856
v -0.100000 0.320857 -0.160856
v -0.080611 0.374236 -0.208420
v 0.018725 0.498406 -0.038000
v 0.018725 0.498406 0.038000
v 0.000664 0.475830 0.020842
v 0.000664 0.475830 -0.020842
v 0.019812 0.601125 -0.026600
v 0.019812 0.601125 0.026600
v -0.000423 0.601541 0.014589
v -0.000423 0.601541 -0.014589
vn -0.780869 0.624695 0.000000
vn 1.000000 -0.000000 0.000000
vn -0.780869 -0.624695 -0.000000
vn -0.688749 0.000000 -0.724999
vn -0.688749 0.000000 0.724999
vn -0.939917 0.341404 0.000000
vn -0.926014 0.000000 -0.377488
vn -0.926014 0.000000 0.377488
vn -0.939917 -0.341404 -0.000000
vn -1.000000 0.000000 0.000000
vn -0.738446 0.082091 0.669297
vn 0.020587 0.999788 -0.000000
vn -0.738446 0.082091 -0.669297
vn 0.999944 -0.010577 0.000000
vn -0.999963 -0.008642 -0.000000
vn -0.509474 0.038353 0.859631
vn -0.509475 0.038353 -0.859631
vn 0.999944 -0.010576 -0.000000
s off
f 20//1 17//1 24//1
f 3//2 4//2 1//2
f 1//3 2//3 15//3
f 20//4 3//4 15//4
f 4//5 17//5 2//5
f 17//6 20//6 18//6
f 20//7 15//7 19//7
f 13//8 17//8 14//8
f 15//9 13//9 16//9
f 14//10 18//10 16//10
f 23//11 22//11 26//11
f 3//1 20//1 24//1
f 4//1 3//1 22//1
f 17//1 4//1 23//1
f 26//12 25//12 27//12
f 21//13 24//13 25//13
f 22//14 21//14 26//14
f 24//15 23//15 28//15
f 17//1 23//1 24//1
f 4//2 2//2 1//2
f 2//3 13//3 15//3
f 3//4 1//4 15//4
f 17//5 13//5 2//5
f 20//6 19//6 18//6
f 15//7 16//7 19//7
f 17//8 18//8 14//8
f 13//9 14//9 16//9
f 18//10 19//10 16//10
f 27//16 23//16 26//16
f 21//1 3//1 24//1
f 3//1 21//1 22//1
f 4//1 22//1 23//1
f 25//12 28//12 27//12
f 24//17 28//17 25//17
f 21//18 25//18 26//18
f 23//15 27//15 28//15
